<?xml version="1.0" standalone="no"?>
<!DOCTYPE svg PUBLIC "-//W3C//DTD SVG 20010904//EN"
 "http://www.w3.org/TR/2001/REC-SVG-20010904/DTD/svg10.dtd">
<svg version="1.0" xmlns="http://www.w3.org/2000/svg"
 width="700.000000pt" height="700.000000pt" viewBox="0 0 700.000000 700.000000"
 preserveAspectRatio="xMidYMid meet">
<metadata>
Created by potrace 1.14, written by Peter Selinger 2001-2017
</metadata>
<g transform="translate(0.000000,700.000000) scale(0.100000,-0.100000)"
fill="#000000" stroke="none">
<path d="M1629 6996 c-2 -2 -62 -6 -134 -10 -71 -3 -141 -8 -155 -10 -14 -3
-50 -7 -80 -10 -30 -3 -66 -8 -80 -11 -14 -3 -52 -10 -84 -16 -262 -47 -545
-222 -747 -460 -184 -217 -278 -436 -314 -734 -4 -27 -8 -61 -10 -74 -2 -13
-8 -83 -12 -155 -10 -164 -11 -3784 -1 -3961 15 -259 49 -450 109 -605 25 -66
113 -232 140 -263 5 -7 26 -34 46 -62 65 -87 175 -195 277 -272 54 -41 108
-79 120 -84 12 -5 37 -19 56 -31 84 -51 276 -118 385 -133 22 -3 50 -8 62 -10
12 -3 51 -8 85 -11 35 -2 69 -7 75 -9 42 -14 605 -19 2118 -19 1724 0 1997 4
2185 29 25 4 63 9 85 11 220 26 468 138 655 293 159 133 319 336 386 491 8 19
21 49 29 65 24 55 54 166 79 301 2 12 7 57 11 100 4 43 9 87 11 97 14 74 18
572 18 2062 0 1525 -4 1999 -19 2115 -2 19 -6 61 -9 93 -36 389 -208 707 -522
963 -50 41 -96 74 -102 74 -7 0 -12 4 -12 8 0 15 -214 120 -295 145 -116 36
-232 59 -375 72 -30 3 -80 8 -110 12 -57 6 -3864 15 -3871 9z m3847 -3423 l0
-2803 -30 -1 c-94 -3 -384 -4 -398 0 -17 3 -18 145 -18 2805 l0 2802 223 0
222 -1 1 -2802z m-2626 1877 c118 -18 138 -22 225 -51 188 -62 345 -177 432
-315 16 -24 30 -44 33 -44 3 0 5 82 5 183 l0 182 343 1 342 0 -1 -1440 c0
-834 -4 -1468 -10 -1506 -5 -36 -12 -83 -15 -105 -41 -297 -188 -600 -387
-799 -209 -209 -444 -319 -812 -381 -147 -24 -454 -24 -590 1 -409 74 -714
252 -927 538 -98 132 -191 347 -213 493 l-6 40 43 12 c189 51 612 160 614 158
1 -1 5 -18 8 -37 15 -99 63 -210 131 -305 138 -193 378 -307 630 -299 286 8
462 71 605 214 122 122 190 279 216 500 9 77 12 480 4 480 -3 0 -14 -14 -24
-31 -28 -47 -123 -145 -190 -195 -102 -77 -288 -154 -431 -179 -65 -11 -346
-15 -395 -6 -25 5 -66 12 -91 15 -87 11 -239 61 -344 113 -486 238 -773 740
-768 1341 3 336 119 680 310 920 44 56 183 195 237 239 155 123 433 239 625
259 31 3 58 7 60 9 7 7 288 3 341 -5z"/>
<path d="M2698 4845 c-2 -2 -27 -5 -55 -9 -70 -8 -195 -50 -262 -88 -296 -169
-442 -548 -366 -955 48 -257 199 -465 405 -560 63 -29 175 -61 235 -68 60 -7
216 -7 236 -1 8 3 31 7 52 11 169 24 358 151 459 310 41 63 93 177 104 226 2
11 6 28 9 40 2 11 6 28 9 37 8 30 18 140 18 215 0 106 -11 192 -38 285 -85
293 -286 486 -569 544 -45 9 -230 19 -237 13z"/>
</g>
</svg>
